<svg t="1722147772920" class="icon" viewBox="0 0 1024 1024" version="1.1" xmlns="http://www.w3.org/2000/svg" p-id="32109" width="200" height="200"><path d="M192 477.87h64v447.79h-64z m192 128h64v319.54h-64z m192 0h64v319.54h-64z" p-id="32110"></path><path d="M448.001 861.661v64h-256v-64z m192.004-255.786v64h-256v-64z m191.992 255.542v64h-253v-64z" p-id="32111"></path><path d="M768.81 477.63h64v447.79h-64zM64 477.87h64v64H64z m64-64h64v64h-64z m64-64h64v64h-64z m64-64h64v64h-64z m64-64h64v64h-64z m64-64h64v64h-64z m192 0h64v64h-64z m64 64h64v64h-64z m64 64h64v64h-64z m64 64h64v64h-64z m64-192h64v192h-64z" p-id="32112"></path><path d="M896.005 157.875v64h-192v-64zM832 413.87h64v64h-64z m64 64h64v64h-64z m-448-384h128v64H448z" p-id="32113"></path></svg>